<svg width="31" height="30" viewBox="0 0 31 30" fill="none" xmlns="http://www.w3.org/2000/svg">
<path d="M15.0006 0C6.71601 0 0 6.71723 0 15.0006C0 23.2852 6.71601 30 15.0006 30C23.2852 30 30.0012 23.2852 30.0012 15.0006C30.0012 6.71723 23.2846 0 15.0006 0ZM18.9705 14.9379H16.373C16.373 19.0887 16.373 24.2014 16.373 24.2014H12.5231C12.5231 24.2014 12.5231 19.1411 12.5231 14.9379H10.692V11.6673H12.5231V9.548C12.5231 8.03119 13.2432 5.66338 16.409 5.66338L19.2599 5.67434V8.85112C19.2599 8.85112 17.5262 8.85112 17.1899 8.85112C16.8519 8.85112 16.3737 9.01986 16.3737 9.74111V11.6679H19.3086L18.9705 14.9379Z" fill="white"/>
</svg>
