<svg width="40" height="39" viewBox="0 0 40 39" fill="none" xmlns="http://www.w3.org/2000/svg">
<path d="M11.7167 0.000215894C11.6824 0.000362296 11.6482 0.00306371 11.6143 0.00829746H5.51812C4.75372 0.00829746 4.08724 0.356046 3.64051 0.851474C3.19378 1.34676 2.93065 1.96617 2.77847 2.60517L0.0199648 14.1914C0.000903414 14.2689 -0.00456539 14.3491 0.00380164 14.4285C0.00197512 14.4491 0.00107624 14.4698 0.00110778 14.4905C0.00111426 16.4842 1.0474 18.3301 2.75423 19.3313C2.75598 19.3324 2.75787 19.333 2.75962 19.334V37.9378C2.75963 38.1207 2.8323 38.2961 2.96162 38.4254C3.09095 38.5547 3.26635 38.6274 3.44924 38.6274H36.5513C36.7342 38.6274 36.9096 38.5547 37.039 38.4254C37.1683 38.2961 37.2409 38.1207 37.241 37.9378V19.334C37.242 19.3334 37.2426 19.3319 37.2437 19.3313C38.9505 18.3301 39.9995 16.4842 39.9995 14.4905C39.9993 14.4725 39.9984 14.4545 39.9968 14.4366C39.9968 14.4348 39.9968 14.433 39.9968 14.4312C39.9968 14.4276 39.9968 14.424 39.9968 14.4204C40.0042 14.3437 39.9988 14.2663 39.9806 14.1914L37.2221 2.60517C37.0699 1.96617 36.8068 1.34676 36.3601 0.851474C35.9133 0.356046 35.2469 0.00829746 34.4825 0.00829746H28.3863C28.3453 0.00188304 28.3038 -0.000821847 28.2623 0.000215894C28.2299 0.000622886 28.1975 0.00332353 28.1654 0.00829746H20.1107C20.0706 0.00204301 20.0301 -0.000661405 19.9895 0.000215894C19.9543 0.000226689 19.9192 0.0029285 19.8845 0.00829746H11.8325C11.7942 0.00235232 11.7555 -0.00035118 11.7167 0.000215894ZM5.51812 1.38755H10.9624L9.70707 13.8008H5.51812H1.53122L4.12001 2.92574C4.23331 2.4499 4.42936 2.03587 4.66417 1.77547C4.89898 1.51506 5.13635 1.38755 5.51812 1.38755ZM12.3497 1.38755H19.3107V13.8008H15.1729H11.0971L12.3497 1.38755ZM20.6899 1.38755H27.6508L28.9035 13.8008H24.8277H20.6899V1.38755ZM29.0382 1.38755H34.4825C34.8642 1.38755 35.0989 1.51575 35.3337 1.77547C35.5685 2.03587 35.7673 2.4499 35.8806 2.92574L38.4694 13.8008H34.4825H30.2935L29.0382 1.38755ZM1.56085 15.1801H5.51812H9.4727C9.26268 16.3995 8.65261 17.5151 7.58162 18.1433C6.30125 18.8943 4.73231 18.8943 3.45194 18.1433C2.38081 17.5149 1.77077 16.3998 1.56085 15.1801ZM11.2156 15.1801H15.1729H19.1275C18.9175 16.3995 18.3074 17.5151 17.2364 18.1433C15.956 18.8943 14.3871 18.8943 13.1067 18.1433C12.0356 17.5149 11.4255 16.3998 11.2156 15.1801ZM20.8704 15.1801H24.8277H28.7823C28.5722 16.3995 27.9622 17.5151 26.8912 18.1433C25.6108 18.8943 24.0419 18.8943 22.7615 18.1433C21.6904 17.5149 21.0803 16.3998 20.8704 15.1801ZM30.5252 15.1801H34.4825H38.437C38.227 16.3995 37.6169 17.5151 36.5459 18.1433C35.2656 18.8943 33.6966 18.8943 32.4163 18.1433C31.3451 17.5149 30.7351 16.3998 30.5252 15.1801ZM10.3428 17.1843C10.8189 18.0611 11.5235 18.8119 12.409 19.3313C14.1158 20.3325 16.2273 20.3325 17.9341 19.3313C18.8192 18.8121 19.5208 18.0607 19.9976 17.1843C20.4737 18.0611 21.1783 18.8119 22.0638 19.3313C23.7706 20.3325 25.8821 20.3325 27.5889 19.3313C28.474 18.8121 29.1756 18.0607 29.6524 17.1843C30.1284 18.0611 30.8331 18.8119 31.7186 19.3313C32.9872 20.0755 34.4783 20.2645 35.8617 19.9024V37.2482H4.13887V19.9024C5.52156 20.2636 7.01147 20.075 8.27932 19.3313C9.16444 18.8121 9.86606 18.0607 10.3428 17.1843ZM29.0894 26.2141C28.8666 26.2076 28.6443 26.2201 28.424 26.2491C27.5427 26.365 26.6983 26.7626 26.0372 27.4237C24.715 28.7457 24.445 30.8015 25.3799 32.4208C26.3148 34.04 28.2289 34.8309 30.0349 34.3469C31.8409 33.863 33.1032 32.2217 33.1032 30.3519C33.1032 30.169 33.0305 29.9936 32.9012 29.8643C32.7719 29.7349 32.5965 29.6623 32.4136 29.6623H28.9654C28.8741 29.661 28.7833 29.6779 28.6985 29.7119C28.6137 29.746 28.5365 29.7966 28.4715 29.8608C28.4064 29.9249 28.3547 30.0014 28.3194 30.0857C28.2842 30.17 28.266 30.2605 28.266 30.3519C28.266 30.4433 28.2842 30.5338 28.3194 30.6181C28.3547 30.7024 28.4064 30.7788 28.4715 30.843C28.5365 30.9072 28.6137 30.9578 28.6985 30.9918C28.7833 31.0259 28.8741 31.0428 28.9654 31.0415H31.4896C31.2322 31.9629 30.6402 32.7586 29.6793 33.0161C28.4698 33.3401 27.2021 32.8155 26.576 31.7311C25.9499 30.6468 26.127 29.2842 27.0124 28.3988C27.8978 27.5134 29.2603 27.3364 30.3447 27.9624C30.5032 28.0529 30.6911 28.0768 30.8673 28.029C31.0435 27.9813 31.1935 27.8657 31.2847 27.7076C31.3759 27.5495 31.4007 27.3617 31.3538 27.1853C31.3069 27.0089 31.192 26.8583 31.0343 26.7664C30.4271 26.4158 29.7577 26.2337 29.0894 26.2141Z" fill="black"/>
</svg>
