<svg fill="none" height="32" viewBox="0 0 32 32" width="32" xmlns="http://www.w3.org/2000/svg"><path d="m16.95 29.55c1.95-1 3.8-2.25 5.4-3.75.35-.35.75-.7 1.05-1.05.15-.15.3-.3.45-.5.25-.25.4-.5.65-.75.25-.3.5001-.6.7001-.95.45-.7.9-1.4 1.25-2.15.2-.4.3999-.8.5499-1.25.4-1.1.7-2.25.85-3.4.05-.3.0501-.65.1001-.95.05-.85.0499-1.65-.1001-2.5-.4-2.5-1.4-4.65-3.1-6.45-.65-.75-1.45-1.35-2.25-1.9-1.55-1-3.25-1.6-5.1-1.85-.2-.05-.45 0-.65-.1h-1.6c0 .05-.05.05-.1.05-.4.05-.8.1-1.2.15-2.95.55-5.34995 2-7.19995 4.35-1.55 1.9-2.4 4.15-2.55 6.6-.15 1.75.1 3.5.75 5.25.1.3.25.55.35.8.05.05.05.15.1.2.65 1.25 1.45 2.4 2.5 3.35.55.5 1.1.95 1.75 1.35 1.89995 1.2 3.99995 1.85 6.29995 1.9.15 0 .2.05.2.2v2.8c-.05.45.45.75.9.55zm.15-18.8c-.05-.3.05-.5.3-.65.1-.05.2-.1.3-.1h4.45c.4 0 .6.35.6.8v5.25c0 1.5-.9499 2.9-2.2999 3.5-.05 0-.0501.05-.1001.05 0 .05.0501.05.1001.05-.05 0-.0501 0-.1001-.05h-.05s0 0-.05 0c-.3.1-.6.15-.9.2-.2.05-.35-.1-.35-.3 0-.15 0-.3 0-.5 0-.3 0-.55 0-.85 0-.05 0-.15 0-.2 0-.2.1-.3.35-.4.35-.1.65-.2.95-.45.3-.3.5-.7.55-1.1-.95 0-1.85 0-2.8 0-.1 0-.2 0-.3 0-.4 0-.65-.25-.65-.65 0-1.5 0-3.05 0-4.6 0 .05 0 .05 0 0zm-2.2 5.3c0 1.1-.45 2.05-1.25 2.8-.05.05-.1.1-.1.1-.4.3-.85.6-1.4.7-.2.05-.45.1-.65.15-.15.05-.3-.05-.35-.25 0-.5 0-.95 0-1.45 0-.15-.05-.3.05-.4.05-.05.1-.1.2-.15.25-.05.5-.1.75-.25.4-.25.7-.6.8-1.1 0-.05.05-.15.05-.25-1 0-2 0-3.04995 0-.1 0-.15 0-.25-.05-.25-.05-.45-.3-.45-.6 0-1.55 0-3.05 0-4.6 0-.25 0-.5.2-.65.1-.1.25-.15.4-.15h4.44995c.4 0 .6.1.6.8z" fill="#fff"/></svg>