<svg width="36" height="40" viewBox="0 0 36 40" fill="none" xmlns="http://www.w3.org/2000/svg">
<path d="M33.2756 26.7594L23.3452 23.7977C23.3452 23.7977 22.9968 23.7977 22.6483 23.7977C21.9515 23.7977 21.4288 23.9719 20.9061 24.4946C20.0351 25.3657 20.2093 26.7594 20.7319 27.4563L26.1327 35.8187C26.3069 35.993 27.3522 37.2125 28.3975 37.2125C29.4428 37.2125 30.3139 36.5156 30.4881 36.5156L30.6623 36.3414L34.8435 30.5922C34.8435 30.418 35.3662 29.7211 35.3662 28.85C35.3662 27.4563 33.9725 26.9336 33.2756 26.7594Z" fill="black"/>
<path d="M22.4741 22.2299C22.8225 22.2299 22.9967 22.2299 23.171 22.2299L33.1013 19.4424C33.4498 19.2682 34.8435 18.7455 35.192 17.7002C35.5404 16.6549 35.0177 15.7838 34.8435 15.6096C34.8435 15.6096 34.8435 15.4354 34.6693 15.4354L29.9654 10.3831C29.9654 10.2089 29.2686 9.33777 27.8748 9.33777C26.4811 9.33777 25.7842 10.5573 25.7842 10.7315L20.2093 19.0939C19.8608 19.6166 19.6866 20.6619 20.2093 21.533C20.7319 21.8814 21.4288 22.2299 22.4741 22.2299Z" fill="black"/>
<path d="M17.4218 0.45263C16.3765 -0.0700222 15.5054 -0.0700221 14.9827 0.104195L6.44607 2.89168C6.27185 2.89168 5.40077 3.24011 4.7039 4.1112C3.83281 5.50494 5.40077 7.24711 5.40077 7.24711L14.1116 18.2228C14.2859 18.397 14.9827 19.0939 16.2023 19.0939C16.3765 19.0939 16.5507 19.0939 16.7249 19.0939C18.1186 18.7455 18.6413 17.3517 18.8155 16.4806V3.24011C18.6413 2.71746 18.4671 0.975283 17.4218 0.45263Z" fill="black"/>
<path d="M13.4147 25.3658C13.589 25.3658 13.7632 25.1915 13.7632 25.1915C14.2858 25.0173 15.1569 24.4947 15.1569 22.9267C15.1569 21.3587 13.589 20.6619 13.4147 20.4877L4.52965 16.3064C4.35544 16.3064 2.61326 15.7838 1.91639 16.1322C1.39374 16.4807 0.522653 17.1775 0.522653 18.0486L0 24.6689C0 25.0173 -1.29802e-07 26.0626 0.348435 26.7595C0.522652 27.1079 1.04531 27.6306 1.91639 27.6306C2.61326 27.6306 3.13591 27.4564 3.13591 27.4564L13.4147 25.3658Z" fill="black"/>
<path d="M17.2476 25.7141C16.8991 25.5399 16.7249 25.5399 16.3765 25.5399C15.3312 25.5399 14.4601 26.2368 14.2859 26.411L7.31717 33.5539C7.14295 33.9024 6.27187 35.1219 6.6203 36.1672C6.96874 37.0383 7.31717 37.5609 8.18826 37.9094L15.157 40C15.157 40 15.5054 40 16.028 40C16.3765 40 16.7249 40 16.8991 39.8258C17.9444 39.4773 18.2929 38.2578 18.2929 37.3867L18.4671 27.6305C18.6413 27.2821 18.2929 26.2368 17.2476 25.7141Z" fill="black"/>
</svg>
